<svg xmlns="http://www.w3.org/2000/svg" width="375" viewBox="0 0 375 375" height="375" version="1.0"><defs><clipPath id="a"><path d="M 57.082031 19 L 318 19 L 318 356 L 57.082031 356 Z M 57.082031 19"/></clipPath><clipPath id="b"><path d="M 57.082031 18.324219 L 318 18.324219 L 318 248 L 57.082031 248 Z M 57.082031 18.324219"/></clipPath></defs><g clip-path="url(#a)"><path fill="#57774E" d="M 316.3125 153.316406 C 316.308594 151.679688 315.710938 150.695312 313.859375 151.070312 C 312.527344 149.613281 310.886719 149.648438 309.085938 149.917969 C 303.160156 150.796875 298.289062 153.285156 294.523438 158.144531 C 290.429688 163.429688 285.53125 168.078125 281.917969 173.761719 C 279.449219 177.433594 276.753906 180.960938 274.710938 184.90625 C 273.570312 184.839844 272.992188 183.96875 272.273438 183.257812 C 264.257812 175.332031 256.878906 166.769531 248.484375 159.226562 C 242.945312 154.25 237.722656 148.734375 230.035156 146.964844 C 230.148438 146.875 230.261719 146.785156 230.371094 146.691406 C 230.121094 146.660156 229.863281 146.65625 229.625 146.589844 C 226.652344 145.742188 223.683594 144.882812 220.261719 143.902344 C 229.257812 135.71875 240.664062 130.917969 246.738281 119.726562 C 249.886719 122.960938 253.464844 125.0625 257.195312 126.90625 C 262.421875 129.488281 269.441406 128.074219 272.761719 123.828125 C 273.8125 121.890625 273.585938 119.824219 272.785156 117.996094 C 270.078125 111.816406 268.71875 105.199219 266.394531 98.898438 C 264.25 93.070312 261.898438 87.414062 256.789062 83.449219 C 256.671875 82.945312 256.292969 82.738281 255.847656 82.601562 C 254.183594 80.789062 250.894531 80.671875 250.867188 77.308594 C 246.789062 77.324219 243.050781 77.226562 239.332031 76.765625 C 236.914062 76.46875 234.644531 77.4375 232.828125 78.765625 C 229.007812 81.5625 225.34375 84.601562 221.808594 87.753906 C 215.121094 93.722656 210.222656 101.238281 204.546875 108.085938 C 203.523438 109.257812 202.648438 110.625 201.582031 111.675781 C 198.90625 114.296875 197.222656 117.960938 193.519531 119.511719 C 196.628906 109.898438 200.058594 100.425781 202.234375 90.484375 C 204.121094 81.878906 206.109375 73.375 206.828125 64.554688 C 207.679688 54.148438 206.414062 44.097656 203.613281 34.082031 C 202.007812 28.347656 198.476562 24.265625 194.136719 20.59375 C 192.570312 19.273438 190.761719 18.5625 188.902344 19.363281 C 184.132812 21.414062 179.199219 23.316406 175.582031 27.257812 C 169.230469 34.175781 163.816406 41.804688 159.429688 50.097656 C 156.585938 55.46875 154.980469 61.320312 153.171875 67.132812 C 150.730469 74.976562 149.167969 82.75 149.71875 90.957031 C 149.933594 94.148438 149.753906 97.363281 149.753906 101.488281 C 146.539062 98.65625 144.15625 96.605469 141.824219 94.496094 C 136.019531 89.242188 129.832031 85.769531 121.863281 89.917969 C 121.230469 90.25 120.507812 90.484375 119.800781 90.585938 C 114.824219 91.320312 109.773438 91.632812 105.929688 87.710938 C 103.335938 85.070312 100.691406 82.207031 99.792969 78.4375 C 99.300781 76.375 98.414062 75.394531 96.3125 75.527344 C 94.917969 77.054688 93.65625 78.5625 92.484375 80.234375 C 87.273438 87.6875 85.320312 96.621094 81.101562 104.511719 C 80.421875 105.785156 80.269531 107.316406 80.660156 108.773438 C 81.359375 111.375 82.121094 113.964844 82.9375 116.847656 C 84.570312 116.167969 86.117188 115.746094 87.433594 114.941406 C 93.792969 111.046875 97.128906 111.453125 101.472656 117.195312 C 104.21875 120.828125 107.296875 123.855469 111.609375 125.617188 C 113.300781 126.308594 115.410156 126.222656 116.636719 127.9375 C 116.449219 128.160156 116.257812 128.382812 116.070312 128.601562 C 114.546875 128.515625 113.292969 129.3125 111.933594 129.804688 C 107.585938 131.375 103.300781 133.292969 98.816406 134.246094 C 95.414062 134.972656 92.007812 135.515625 88.738281 136.757812 C 81.382812 139.558594 74.699219 143.367188 69.421875 149.339844 C 66.15625 153.035156 63.953125 157.421875 61.367188 161.566406 C 58.335938 166.429688 57.515625 171.78125 57.238281 177.265625 C 57.105469 179.882812 59.183594 181.589844 61.917969 182.0625 C 66.121094 182.789062 68.679688 180.207031 71.363281 177.699219 C 79.164062 170.390625 88.042969 167.097656 98.675781 170.578125 C 102.808594 172.75 106.789062 175.3125 111.113281 176.980469 C 115.082031 178.507812 118.625 181.375 123.179688 181.25 C 119.382812 185.257812 114.757812 188.324219 111.363281 192.882812 C 108.566406 196.644531 104.4375 199.40625 100.976562 202.6875 C 99.707031 203.886719 97.847656 204.738281 97.625 207.675781 C 102.761719 205.96875 107.515625 204.582031 112.121094 202.8125 C 118.277344 200.445312 123.875 196.777344 130.25 194.882812 C 130.285156 195.171875 130.398438 195.472656 130.347656 195.742188 C 128.789062 204.074219 131.699219 210.738281 138.011719 216.082031 C 138.777344 216.730469 138.789062 217.535156 139.140625 218.285156 C 141.65625 223.628906 142.074219 229.363281 142.582031 235.113281 C 143.15625 241.578125 147.09375 246.449219 152.523438 247.082031 C 154.828125 247.351562 157.238281 246.726562 159.753906 246.492188 C 159.835938 242.929688 159.453125 239.570312 160.96875 236.488281 C 162.203125 237.871094 161.511719 239.5625 161.609375 241.089844 C 162.039062 247.859375 161.746094 254.6875 163.5625 261.328125 C 163.90625 262.59375 164 263.996094 166.058594 263.664062 C 167.378906 258.878906 168.378906 253.941406 170.164062 249.304688 C 171.164062 246.71875 171.09375 244.035156 172.09375 241.4375 C 174.632812 234.867188 176.527344 228.042969 178.679688 221.320312 C 182.875 217.625 185.886719 213.132812 187.796875 207.890625 C 189.5 214.847656 192.269531 221.46875 194.378906 228.296875 C 196.691406 235.792969 199.445312 243.167969 201.328125 250.804688 C 202.546875 255.738281 205.203125 260.207031 206.5 264.980469 C 207.929688 270.226562 209.484375 275.457031 210.921875 280.710938 C 213.917969 291.691406 218.738281 302.011719 222.605469 312.675781 C 225.367188 320.28125 228.992188 327.445312 232.597656 334.648438 C 236.171875 341.789062 241.085938 348.007812 245.871094 354.320312 C 247.074219 355.90625 248.617188 356.386719 250.242188 354.695312 C 249.667969 350.871094 248.667969 347.328125 247.089844 343.875 C 244.9375 339.152344 242.851562 334.386719 241.273438 329.414062 C 240.617188 327.347656 240.335938 325.207031 241.128906 323.472656 C 243.964844 317.273438 244.542969 310.453125 247.097656 304.113281 C 249.695312 297.660156 251.496094 290.835938 254.238281 284.367188 C 256.601562 278.785156 258.578125 273.042969 260.769531 267.390625 C 263.589844 260.121094 267.292969 253.207031 269.492188 245.691406 C 270.652344 244.464844 272.34375 244.527344 273.765625 243.941406 C 277.789062 242.28125 282.121094 241.125 284.8125 237.261719 C 286.570312 235.742188 288.023438 233.933594 289.265625 232.007812 C 293.546875 225.386719 296.964844 218.246094 301.378906 211.695312 C 302.496094 210.035156 303.828125 208.519531 304.605469 206.589844 C 309.855469 193.519531 314.695312 180.328125 317.289062 166.425781 C 318.117188 161.96875 317.765625 157.601562 316.3125 153.316406 Z M 198.257812 132.324219 C 198.253906 132.609375 198.191406 132.835938 198.050781 132.984375 C 198.191406 132.835938 198.253906 132.609375 198.257812 132.324219 Z M 258.925781 249.398438 C 256.398438 254.902344 254.054688 260.492188 251.746094 266.089844 C 250.59375 268.890625 249.347656 271.652344 248.726562 274.667969 C 247.261719 281.769531 243.230469 287.941406 241.355469 294.933594 C 239.601562 301.480469 237.507812 307.9375 236.414062 315.015625 C 234.351562 312.71875 233.839844 309.84375 232.359375 307.527344 C 232.433594 307.292969 232.402344 307.074219 232.269531 306.871094 C 232.527344 305.761719 232.589844 304.691406 231.578125 303.875 C 230.996094 302.574219 230.167969 301.324219 229.871094 299.964844 C 228.007812 291.363281 224.890625 283.121094 222.351562 274.730469 C 219.609375 265.660156 217.070312 256.515625 214.371094 247.4375 C 210.78125 235.390625 206.40625 223.59375 203.214844 211.433594 C 202.761719 209.699219 201.804688 208.625 200.078125 208.214844 C 200.097656 207.421875 199.558594 206.960938 199.046875 206.480469 C 199.453125 205.3125 197.773438 204.488281 198.640625 203.019531 C 201.625 202.625 202.652344 205.894531 204.988281 206.710938 C 211.105469 211.910156 217.242188 217.085938 223.332031 222.316406 C 229.359375 227.492188 235.058594 233.101562 242.492188 237.210938 C 242.023438 231.792969 234.5625 221.308594 222.894531 209.023438 C 222.804688 208.488281 222.453125 208.261719 221.980469 208.175781 C 219.914062 203.71875 216.246094 200.433594 213.378906 196.679688 C 213.78125 195.628906 214.550781 195.261719 215.332031 194.910156 C 222.738281 195.488281 230.101562 194.382812 237.5 194.273438 C 247.851562 194.117188 255.960938 198.066406 262.675781 205.5625 C 259.800781 213.519531 259.046875 221.699219 260.183594 230.050781 C 260.511719 232.441406 260.695312 234.929688 262.53125 236.847656 C 263.464844 237.824219 263.644531 239.160156 263.972656 240.410156 C 261.363281 242.882812 260.359375 246.28125 258.925781 249.398438 Z M 258.925781 249.398438"/></g><path fill="#57774E" d="M 221.726562 327.527344 C 219.5 325.921875 217.246094 324.390625 214.777344 323.125 C 208.5 319.910156 202.128906 316.808594 196.125 313.128906 C 186.0625 306.960938 176.589844 299.878906 166.570312 293.613281 C 157.757812 288.097656 149.410156 281.847656 140.816406 275.980469 C 138.972656 274.71875 137.6875 272.609375 135.410156 272.042969 C 134.695312 272.90625 135.0625 273.589844 135.191406 274.289062 C 136.238281 279.957031 139.835938 284.078125 143.316406 288.410156 C 154.316406 302.113281 165.746094 315.132812 182.195312 322.8125 C 189.613281 326.273438 197.15625 328.550781 205.199219 329.632812 C 210.644531 330.363281 216.355469 328.820312 221.578125 331.5625 C 222.4375 332.011719 223.257812 331.492188 223.765625 330.613281 C 223.851562 329.089844 222.777344 328.285156 221.726562 327.527344 Z M 221.726562 327.527344"/><path fill="#57774E" d="M 199.886719 305.605469 C 202.382812 308.738281 205.378906 311.527344 210.136719 311.476562 C 210.261719 309.464844 209.402344 308.054688 208.445312 306.625 C 200.984375 295.453125 192.421875 285.191406 183.050781 275.566406 C 182.015625 274.503906 181.140625 273.652344 179.8125 274.398438 C 178.316406 275.238281 178.210938 276.695312 178.964844 278.167969 C 179.289062 278.808594 179.675781 279.433594 180.113281 280.003906 C 186.679688 288.554688 193.167969 297.171875 199.886719 305.605469 Z M 199.886719 305.605469"/><path fill="#151444" d="M 269.492188 245.601562 C 265.882812 245.6875 265.851562 242.042969 263.976562 240.320312 C 263.644531 239.070312 263.46875 237.734375 262.53125 236.757812 C 260.695312 234.84375 260.511719 232.351562 260.183594 229.960938 C 259.046875 221.613281 259.800781 213.429688 262.675781 205.476562 C 265.191406 207.316406 268.089844 207.964844 271.121094 208.347656 C 274.945312 208.832031 277.972656 207.660156 280.03125 204.378906 C 282.148438 201.011719 281.949219 197.476562 280.21875 194.074219 C 278.59375 190.875 276.113281 188.167969 274.710938 184.820312 C 276.753906 180.875 279.449219 177.347656 281.917969 173.675781 C 283.34375 174.488281 283.324219 175.96875 283.847656 177.300781 C 285.609375 181.773438 283.765625 186.726562 285.851562 191.039062 C 286.484375 191.074219 286.621094 190.582031 286.871094 190.253906 C 290.789062 185.109375 293.664062 179.25 297.824219 174.261719 C 298.6875 173.226562 299.285156 172.105469 301.15625 172.949219 C 300.605469 174.015625 300.160156 175.042969 299.578125 175.984375 C 295.277344 182.992188 290.953125 189.984375 286.628906 196.980469 C 285.246094 199.210938 284.359375 201.515625 285.296875 204.480469 C 287.523438 202.652344 289.359375 200.507812 290.351562 198.464844 C 294.890625 189.121094 300.945312 180.660156 305.589844 171.40625 C 308.890625 164.828125 312.394531 158.308594 313.859375 150.980469 C 315.710938 150.605469 316.308594 151.59375 316.3125 153.230469 C 314.796875 159.902344 312.015625 166.023438 308.890625 172.117188 C 302.628906 184.320312 296.269531 196.425781 288.417969 207.71875 C 286.984375 209.785156 284.96875 211.855469 284.894531 214.582031 C 284.6875 222.109375 284.179688 229.640625 284.8125 237.175781 C 282.121094 241.039062 277.789062 242.195312 273.765625 243.851562 C 272.34375 244.441406 270.652344 244.378906 269.492188 245.601562 Z M 269.492188 245.601562"/><path fill="#151444" d="M 98.675781 170.492188 C 100.449219 169.445312 102.359375 168.867188 104.421875 168.929688 C 113.988281 169.222656 123.410156 168.484375 132.824219 166.453125 C 142.109375 164.445312 151.234375 162.105469 159.992188 158.410156 C 160.8125 157.871094 161.621094 157.316406 162.277344 156.144531 C 160.175781 154.507812 160.433594 151.78125 159.503906 149.496094 C 160.332031 149.941406 161.164062 150.382812 162.070312 150.871094 C 162.960938 150.117188 163.785156 149.417969 164.609375 148.714844 C 165.382812 149.816406 165.617188 151.644531 167.507812 151.351562 C 169.390625 151.0625 168.976562 149.246094 169.484375 147.996094 C 170.191406 146.261719 169.5625 144.425781 170.183594 142.726562 C 171.609375 143.828125 170.183594 146.722656 172.894531 147.015625 C 173.128906 148.414062 173.570312 149.820312 173.554688 151.214844 C 173.53125 153.300781 174.734375 153.9375 176.425781 154.253906 C 174.503906 158.5 172.824219 159.117188 166.535156 157.9375 C 161.894531 163.289062 157.15625 168.421875 150.710938 171.71875 C 148.972656 172.605469 147.3125 174.171875 146.292969 175.839844 C 144.039062 179.515625 140.3125 180.886719 136.835938 182.71875 C 132.136719 183.480469 127.695312 182.03125 123.179688 181.164062 C 118.625 181.285156 115.082031 178.417969 111.113281 176.890625 C 106.789062 175.226562 102.808594 172.664062 98.675781 170.492188 Z M 98.675781 170.492188"/><path fill="#151444" d="M 230.035156 146.875 C 229.394531 147.15625 229.027344 147.957031 228.195312 147.847656 C 223.277344 147.199219 218.53125 149.261719 213.648438 148.792969 C 211.554688 148.59375 209.699219 149.507812 207.71875 149.609375 C 206.105469 149.695312 204.359375 150.082031 202.386719 148.949219 C 204.191406 147.261719 206.207031 148.214844 207.847656 147.625 C 210.640625 146.621094 212.417969 144.363281 214.722656 142.78125 C 221.472656 138.144531 228.238281 133.597656 234.550781 128.289062 C 239.101562 124.460938 241.886719 119.765625 244.351562 114.773438 C 247.984375 107.414062 250.234375 99.472656 252.894531 91.726562 C 253.933594 88.699219 253.597656 85.199219 255.847656 82.515625 C 256.292969 82.648438 256.671875 82.859375 256.789062 83.359375 C 256.761719 83.648438 256.65625 83.953125 256.71875 84.21875 C 259.140625 94 258.867188 104.230469 261.785156 113.960938 C 262.511719 116.375 263.121094 118.394531 265.007812 120.210938 C 267.257812 122.367188 269.949219 123.070312 272.761719 123.742188 C 269.441406 127.988281 262.421875 129.398438 257.195312 126.820312 C 253.464844 124.976562 249.886719 122.871094 246.738281 119.636719 C 240.664062 130.828125 229.257812 135.628906 220.261719 143.8125 C 223.683594 144.796875 226.652344 145.652344 229.625 146.5 C 229.863281 146.570312 230.121094 146.570312 230.371094 146.605469 C 230.261719 146.695312 230.148438 146.785156 230.035156 146.875 Z M 230.035156 146.875"/><path fill="#151444" d="M 143.292969 129.898438 C 135.550781 128.996094 127.824219 128.699219 120.101562 130.167969 C 118.535156 130.464844 116.488281 131.292969 116.070312 128.515625 C 116.257812 128.292969 116.449219 128.070312 116.636719 127.851562 C 123.632812 124.5625 131.375 124.902344 139.722656 123.796875 C 132.820312 119.273438 127.078125 114.894531 120.78125 111.554688 C 114.609375 108.285156 107.882812 106.054688 100.40625 104.335938 C 102.917969 102.527344 104.953125 102.628906 107.070312 103.070312 C 116.394531 105.019531 124.769531 109.117188 132.59375 114.421875 C 134.953125 116.019531 137.175781 117.816406 139.460938 119.523438 C 140.929688 122.914062 142.273438 126.347656 143.292969 129.898438 Z M 143.292969 129.898438"/><path fill="#151444" d="M 204.988281 206.625 C 202.652344 205.808594 201.625 202.535156 198.640625 202.933594 C 197.773438 204.398438 199.453125 205.222656 199.046875 206.390625 C 195.296875 206.808594 191.640625 205.992188 187.953125 205.53125 C 187.910156 203.070312 187.707031 200.601562 187.863281 198.15625 C 188.03125 195.519531 187.441406 193.148438 186.207031 190.875 C 186.058594 189.714844 187.542969 189.398438 187.542969 188.113281 C 182.726562 183.320312 181.1875 176.929688 180.292969 170.410156 C 180.089844 168.933594 180.480469 166.667969 182.933594 165.453125 C 183.378906 168.546875 184.199219 171.332031 184.949219 174.113281 C 185.371094 175.691406 185.832031 177.125 186.789062 178.375 C 191.820312 184.945312 196.878906 191.445312 205.835938 192.964844 C 208.292969 193.382812 210.742188 193.257812 213.191406 193.425781 C 214.191406 193.496094 215.335938 193.253906 215.332031 194.820312 C 214.550781 195.171875 213.78125 195.539062 213.378906 196.589844 C 216.246094 200.34375 219.917969 203.632812 221.984375 208.09375 C 219.207031 208.363281 216.480469 208.554688 213.628906 208.359375 C 210.597656 208.152344 207.921875 206.871094 204.988281 206.625 Z M 204.988281 206.625"/><path fill="#151444" d="M 174.074219 134.054688 C 174.128906 136.980469 172.769531 139.71875 172.957031 142.664062 C 171.765625 140.992188 171.585938 139.027344 171.160156 137.089844 C 170.339844 133.367188 171.269531 129.414062 169.554688 125.839844 C 169.542969 125.488281 169.535156 125.132812 169.527344 124.777344 C 170.652344 118.078125 169.515625 111.296875 170.351562 104.5625 C 172.371094 88.304688 175.171875 72.214844 180.757812 56.761719 C 182.855469 50.972656 184.65625 45.019531 187.796875 39.632812 C 188.328125 38.722656 189.027344 38.082031 190.078125 37.210938 C 190.480469 38.59375 190.386719 39.5 190.035156 40.640625 C 186.121094 53.34375 181.660156 65.898438 178.679688 78.863281 C 174.671875 96.308594 172.949219 114 173.777344 131.90625 C 173.8125 132.625 173.972656 133.339844 174.074219 134.054688 Z M 174.074219 134.054688"/><path fill="#151444" d="M 157.613281 215.699219 C 156.640625 215.675781 155.960938 215.070312 155.992188 214.738281 C 156.320312 210.859375 153.539062 207.109375 155.765625 203.0625 C 156.34375 202.003906 156.34375 200.195312 156.441406 198.761719 C 157.019531 190.457031 160.085938 183.019531 163.855469 175.753906 C 164.828125 173.875 165.289062 171.726562 165.964844 169.753906 C 165.941406 168.296875 164.070312 169.328125 163.867188 168.128906 C 164.054688 167.894531 164.253906 167.464844 164.410156 167.480469 C 169.023438 167.902344 170.824219 164.660156 172.714844 161.351562 C 173.75 159.539062 174.839844 157.269531 178.191406 159.019531 C 175.996094 162.828125 173.816406 166.625 171.621094 170.410156 C 168.441406 175.902344 166.296875 181.832031 164.167969 187.78125 C 161.234375 195.964844 160.65625 204.605469 159.003906 213.039062 C 158.804688 214.070312 158.691406 215.039062 157.613281 215.699219 Z M 157.613281 215.699219"/><path fill="#151444" d="M 153.570312 135.695312 C 151.054688 133.542969 150.742188 130.449219 150.085938 127.507812 C 151.511719 127.648438 152.476562 129.277344 154.644531 128.570312 C 154.855469 115.769531 151.835938 102.953125 152.132812 89.378906 C 154.316406 90.625 154.371094 92.210938 154.613281 93.664062 C 155.699219 100.214844 156.800781 106.765625 157.820312 113.324219 C 158.097656 115.097656 158.605469 116.683594 159.960938 117.914062 C 160.839844 119.949219 160.753906 122.148438 161.011719 124.28125 C 161.628906 129.40625 162.375 134.503906 163.441406 139.558594 C 163.699219 140.785156 163.394531 142.132812 163.351562 143.421875 C 159.710938 141.324219 157.332031 137.640625 153.570312 135.695312 Z M 153.570312 135.695312"/><path fill="#151444" d="M 199.074219 131.351562 C 200.132812 127.167969 203.171875 124.296875 205.933594 121.285156 C 206.808594 120.332031 207.699219 119.40625 208.464844 118.363281 C 209.390625 118.125 210.023438 117.6875 209.699219 116.582031 L 209.671875 116.621094 C 210.390625 116.722656 210.683594 116.417969 210.546875 115.707031 L 210.527344 115.726562 C 211.25 115.835938 211.53125 115.527344 211.398438 114.820312 L 211.386719 114.839844 C 214.570312 113.320312 216.398438 110.328125 218.824219 107.980469 C 225.167969 101.839844 230.179688 94.492188 236.5625 88.378906 C 236.972656 87.984375 237.414062 87.625 238.023438 87.085938 C 238.648438 88.242188 238.195312 88.933594 237.726562 89.839844 C 234 96.984375 228.609375 102.8125 223.265625 108.722656 C 217.253906 115.375 210.8125 121.601562 204.394531 127.847656 C 202.898438 129.304688 201.429688 131.078125 199.074219 131.351562 Z M 199.074219 131.351562"/><path fill="#151444" d="M 181.976562 157.464844 L 182.253906 157.445312 C 186.09375 158.667969 189.953125 157.21875 193.808594 157.496094 C 194.300781 157.53125 194.96875 157.175781 195.324219 156.785156 C 197.300781 154.621094 198.882812 154.425781 200.851562 157.03125 C 201.773438 158.25 203.878906 157.605469 205.441406 157.675781 C 208.851562 157.828125 210.910156 159.65625 212.359375 162.488281 C 211.332031 163.777344 210.011719 163.972656 209.160156 163.207031 C 207.289062 161.523438 205.125 161.890625 202.996094 161.820312 C 199.453125 161.707031 195.910156 162.003906 192.398438 161.03125 C 190.609375 160.535156 188.664062 160.773438 186.820312 161.285156 C 184.71875 161.867188 182.632812 162.058594 180.53125 161.089844 C 180.660156 159.628906 181.441406 158.59375 181.976562 157.464844 Z M 181.976562 157.464844"/><path fill="#151444" d="M 198.207031 132.242188 C 198.179688 131.605469 198.296875 131.109375 199.125 131.308594 C 199.136719 131.929688 198.84375 132.253906 198.207031 132.242188 Z M 198.207031 132.242188"/><path fill="#151444" d="M 197.335938 133.113281 C 197.304688 132.464844 197.605469 132.144531 198.265625 132.183594 C 198.269531 132.808594 197.992188 133.152344 197.335938 133.113281 Z M 197.335938 133.113281"/><path fill="#151444" d="M 196.210938 133.917969 C 196.472656 133.445312 196.757812 133.003906 197.40625 133.058594 C 197.320312 133.78125 196.8125 133.917969 196.210938 133.917969 Z M 196.210938 133.917969"/><path fill="#151444" d="M 139.269531 148.796875 C 132.460938 148.753906 125.734375 149.449219 118.996094 150.457031 C 112.582031 151.414062 106.796875 154.851562 100.214844 155.089844 C 106.484375 150.003906 113.695312 147.441406 121.519531 146.285156 C 126.21875 145.589844 130.894531 144.847656 135.664062 145.136719 C 136.867188 146.355469 138.066406 147.578125 139.269531 148.796875 Z M 139.269531 148.796875"/><path fill="#E2CF9E" d="M 181.976562 157.464844 C 177.742188 155.121094 176.820312 152.667969 179.140625 148.484375 C 180.175781 146.621094 179.835938 144.613281 180.726562 142.714844 C 183.296875 137.246094 186.210938 132.015625 189.832031 127.195312 C 191.605469 124.832031 191.738281 121.75 193.519531 119.421875 C 197.222656 117.875 198.90625 114.207031 201.582031 111.585938 C 202.648438 110.539062 203.523438 109.171875 204.546875 107.996094 C 206.324219 108.007812 207.792969 106.957031 209.460938 106.570312 C 212.277344 105.921875 213.589844 107.175781 212.746094 109.96875 C 212.261719 111.585938 211.398438 113.089844 211.386719 114.839844 L 211.398438 114.820312 C 210.710938 114.742188 210.53125 115.148438 210.527344 115.726562 L 210.546875 115.707031 C 209.949219 115.71875 209.671875 116.039062 209.671875 116.621094 L 209.699219 116.582031 C 208.765625 116.816406 208.683594 117.636719 208.464844 118.363281 C 207.699219 119.40625 206.808594 120.332031 205.933594 121.285156 C 203.171875 124.296875 200.132812 127.167969 199.074219 131.351562 L 199.125 131.308594 C 198.296875 131.109375 198.179688 131.605469 198.207031 132.242188 C 198.207031 132.242188 198.265625 132.183594 198.265625 132.183594 C 197.605469 132.144531 197.304688 132.464844 197.335938 133.113281 L 197.40625 133.058594 C 196.757812 133.003906 196.472656 133.445312 196.210938 133.917969 C 193.253906 138.339844 190.285156 142.75 187.347656 147.1875 C 186.3125 148.753906 186.871094 150.578125 186.648438 152.457031 C 184.632812 153.527344 183.851562 155.835938 182.253906 157.445312 Z M 168.882812 129.445312 C 168.664062 128.117188 168.378906 126.867188 169.554688 125.839844 C 169.542969 125.488281 169.535156 125.132812 169.527344 124.777344 C 168.507812 123.90625 168.722656 122.6875 168.605469 121.554688 C 167.695312 112.71875 167.027344 103.84375 164.09375 95.347656 C 163.25 92.90625 162.691406 90.394531 162.246094 87.824219 C 161.78125 85.164062 160.722656 82.542969 159.550781 80.085938 C 158.199219 77.253906 156.847656 77.125 153.703125 79.039062 C 153.582031 81.914062 153.488281 84.808594 155.46875 87.273438 C 156.039062 87.984375 156.226562 88.8125 156.214844 89.710938 C 156.183594 92.773438 156.871094 95.722656 157.59375 98.671875 C 159.152344 104.992188 159.160156 111.503906 159.960938 117.914062 C 160.839844 119.949219 160.753906 122.148438 161.011719 124.28125 C 161.628906 129.40625 162.375 134.5 163.441406 139.558594 C 163.699219 140.785156 163.394531 142.132812 163.351562 143.421875 C 164.480469 145.019531 164.246094 146.9375 164.609375 148.714844 C 165.382812 149.816406 165.617188 151.644531 167.507812 151.351562 C 169.390625 151.0625 168.976562 149.246094 169.484375 147.996094 C 170.191406 146.261719 169.5625 144.425781 170.183594 142.726562 C 170.046875 138.269531 169.621094 133.839844 168.882812 129.445312 Z M 177.1875 151.765625 C 177.699219 144.320312 179.625 137.230469 182.335938 130.308594 C 184.339844 125.199219 185.949219 119.925781 188.15625 114.910156 C 191.992188 106.183594 196.308594 97.667969 200.082031 88.917969 C 201.121094 86.507812 202.71875 83.710938 200.820312 80.375 C 198.375 81.4375 197.011719 83.304688 195.8125 85.195312 C 190.53125 93.515625 185.859375 102.203125 182.242188 111.347656 C 180.65625 115.351562 178.492188 119.171875 177.457031 123.34375 C 176.550781 127.003906 175.496094 130.574219 174.074219 134.054688 C 174.128906 136.980469 172.765625 139.71875 172.957031 142.664062 C 172.933594 144.113281 172.914062 145.566406 172.894531 147.015625 C 173.128906 148.414062 173.570312 149.820312 173.554688 151.214844 C 173.53125 153.300781 174.734375 153.9375 176.425781 154.253906 C 176.6875 153.425781 177.128906 152.609375 177.1875 151.765625 Z M 149.601562 143.699219 C 150.648438 145.480469 149.9375 148.046875 151.773438 149.199219 C 153.777344 150.460938 154.574219 152.410156 155.691406 154.21875 C 156.777344 155.976562 158.042969 157.539062 159.992188 158.410156 C 160.8125 157.871094 161.621094 157.316406 162.277344 156.144531 C 160.175781 154.507812 160.433594 151.78125 159.503906 149.496094 C 157.503906 144.90625 154.613281 140.699219 153.570312 135.695312 C 151.054688 133.542969 150.742188 130.449219 150.085938 127.507812 C 147.777344 123.09375 145.476562 118.675781 143.148438 114.269531 C 142.148438 112.378906 140.890625 110.789062 138.210938 110.65625 C 137.367188 113.921875 139.511719 116.59375 139.460938 119.523438 C 140.929688 122.914062 142.273438 126.347656 143.292969 129.898438 C 145.117188 134.628906 147.027344 139.332031 149.601562 143.699219 Z M 152.492188 157.714844 C 151.75 153.113281 147.230469 151.523438 147.121094 147.460938 C 143.175781 146.578125 139.867188 144.808594 137.28125 142.179688 C 135.46875 142.753906 135.589844 143.953125 135.664062 145.136719 C 136.867188 146.355469 138.066406 147.578125 139.269531 148.796875 C 143.6875 151.425781 147.261719 155.417969 152.492188 157.714844 Z M 152.492188 157.714844"/><path fill="#151444" d="M 232.269531 306.785156 C 232.402344 306.988281 232.433594 307.207031 232.359375 307.4375 C 232.257812 308.429688 232.152344 309.421875 231.953125 311.328125 C 229.566406 306.097656 227.199219 301.75 225.558594 297.144531 C 221.027344 284.421875 217.398438 271.425781 213.777344 258.410156 C 211.472656 250.128906 208.855469 241.875 206.351562 233.621094 C 203.8125 225.253906 200.648438 216.992188 200.078125 208.125 C 201.804688 208.539062 202.761719 209.613281 203.214844 211.34375 C 206.40625 223.507812 210.78125 235.304688 214.371094 247.351562 C 217.074219 256.429688 219.609375 265.570312 222.351562 274.640625 C 224.890625 283.03125 228.007812 291.273438 229.871094 299.875 C 230.167969 301.238281 230.996094 302.484375 231.578125 303.785156 C 231.339844 304.894531 231.089844 306.003906 232.269531 306.785156 Z M 232.269531 306.785156"/><g clip-path="url(#b)"><path fill="#D43B3B" d="M 160.96875 236.398438 C 159.453125 239.484375 159.835938 242.839844 159.753906 246.402344 C 157.238281 246.636719 154.828125 247.265625 152.523438 246.996094 C 147.09375 246.363281 143.15625 241.488281 142.582031 235.023438 C 142.074219 229.277344 141.65625 223.539062 139.140625 218.199219 C 138.789062 217.449219 138.777344 216.640625 138.015625 215.996094 C 131.699219 210.648438 128.789062 203.988281 130.347656 195.65625 C 130.398438 195.382812 130.285156 195.082031 130.25 194.796875 C 130.421875 193.035156 131.519531 191.667969 132.261719 190.160156 C 133.542969 187.539062 135.957031 185.601562 136.835938 182.71875 C 140.3125 180.886719 144.039062 179.515625 146.292969 175.839844 C 147.3125 174.171875 148.972656 172.605469 150.710938 171.71875 C 157.15625 168.421875 161.894531 163.289062 166.535156 157.9375 C 172.824219 159.117188 174.503906 158.5 176.425781 154.253906 C 176.6875 153.425781 177.128906 152.609375 177.1875 151.765625 C 177.699219 144.320312 179.625 137.230469 182.335938 130.308594 C 184.339844 125.199219 185.949219 119.925781 188.15625 114.910156 C 191.992188 106.183594 196.308594 97.667969 200.082031 88.917969 C 201.121094 86.507812 202.71875 83.710938 200.820312 80.375 C 198.375 81.4375 197.011719 83.304688 195.8125 85.195312 C 190.53125 93.515625 185.859375 102.203125 182.242188 111.347656 C 180.65625 115.351562 178.492188 119.171875 177.457031 123.34375 C 176.550781 127.003906 175.496094 130.574219 174.074219 134.054688 C 173.972656 133.339844 173.8125 132.625 173.777344 131.90625 C 172.949219 114 174.671875 96.308594 178.679688 78.863281 C 181.660156 65.898438 186.121094 53.34375 190.035156 40.640625 C 190.386719 39.5 190.480469 38.59375 190.078125 37.210938 C 189.027344 38.082031 188.328125 38.722656 187.796875 39.632812 C 184.65625 45.019531 182.855469 50.972656 180.757812 56.761719 C 175.171875 72.214844 172.371094 88.304688 170.351562 104.5625 C 169.515625 111.296875 170.652344 118.078125 169.527344 124.777344 C 168.507812 123.90625 168.722656 122.6875 168.605469 121.554688 C 167.695312 112.71875 167.027344 103.84375 164.09375 95.347656 C 163.25 92.90625 162.691406 90.394531 162.246094 87.824219 C 161.78125 85.164062 160.722656 82.546875 159.550781 80.085938 C 158.199219 77.253906 156.847656 77.125 153.703125 79.039062 C 153.582031 81.914062 153.488281 84.808594 155.46875 87.273438 C 156.039062 87.984375 156.226562 88.8125 156.214844 89.710938 C 156.183594 92.773438 156.871094 95.722656 157.59375 98.671875 C 159.152344 104.992188 159.160156 111.503906 159.960938 117.914062 C 158.605469 116.683594 158.097656 115.097656 157.820312 113.324219 C 156.800781 106.765625 155.699219 100.214844 154.613281 93.664062 C 154.371094 92.210938 154.316406 90.625 152.132812 89.378906 C 151.835938 102.953125 154.855469 115.769531 154.644531 128.570312 C 152.476562 129.277344 151.511719 127.648438 150.085938 127.507812 C 147.777344 123.09375 145.476562 118.675781 143.148438 114.269531 C 142.148438 112.378906 140.890625 110.789062 138.210938 110.65625 C 137.367188 113.921875 139.511719 116.59375 139.460938 119.523438 C 137.175781 117.820312 134.953125 116.019531 132.59375 114.421875 C 124.769531 109.117188 116.394531 105.019531 107.070312 103.070312 C 104.953125 102.628906 102.917969 102.527344 100.40625 104.335938 C 107.882812 106.054688 114.609375 108.285156 120.78125 111.554688 C 127.078125 114.894531 132.820312 119.273438 139.722656 123.796875 C 131.375 124.902344 123.632812 124.5625 116.636719 127.851562 C 115.410156 126.136719 113.300781 126.21875 111.609375 125.527344 C 107.296875 123.769531 104.21875 120.738281 101.46875 117.109375 C 97.128906 111.367188 93.792969 110.957031 87.433594 114.851562 C 86.117188 115.65625 84.570312 116.082031 82.9375 116.761719 C 82.121094 113.875 81.359375 111.289062 80.660156 108.683594 C 80.269531 107.226562 80.421875 105.699219 81.101562 104.421875 C 85.320312 96.535156 87.273438 87.601562 92.484375 80.148438 C 93.65625 78.472656 94.917969 76.96875 96.3125 75.4375 C 98.414062 75.308594 99.300781 76.285156 99.792969 78.351562 C 100.691406 82.117188 103.335938 84.980469 105.925781 87.621094 C 109.773438 91.542969 114.824219 91.234375 119.800781 90.5 C 120.507812 90.394531 121.230469 90.160156 121.863281 89.832031 C 129.832031 85.683594 136.019531 89.15625 141.824219 94.40625 C 144.152344 96.519531 146.539062 98.570312 149.753906 101.398438 C 149.753906 97.277344 149.933594 94.058594 149.71875 90.871094 C 149.167969 82.660156 150.726562 74.886719 153.171875 67.042969 C 154.980469 61.234375 156.585938 55.378906 159.429688 50.011719 C 163.816406 41.71875 169.230469 34.085938 175.582031 27.167969 C 179.199219 23.230469 184.132812 21.324219 188.898438 19.277344 C 190.761719 18.476562 192.570312 19.183594 194.136719 20.507812 C 198.476562 24.179688 202.007812 28.257812 203.613281 33.996094 C 206.414062 44.007812 207.679688 54.058594 206.828125 64.464844 C 206.109375 73.285156 204.121094 81.792969 202.234375 90.398438 C 200.058594 100.335938 196.628906 109.8125 193.519531 119.421875 C 191.738281 121.75 191.605469 124.832031 189.832031 127.195312 C 186.210938 132.015625 183.296875 137.246094 180.726562 142.714844 C 179.835938 144.613281 180.175781 146.621094 179.140625 148.484375 C 176.820312 152.667969 177.742188 155.121094 181.976562 157.464844 C 181.4375 158.59375 180.660156 159.628906 180.53125 161.089844 C 182.632812 162.058594 184.71875 161.867188 186.820312 161.285156 C 188.664062 160.773438 190.609375 160.535156 192.398438 161.03125 C 195.910156 162.003906 199.453125 161.707031 202.996094 161.820312 C 205.125 161.890625 207.289062 161.523438 209.160156 163.207031 C 210.011719 163.972656 211.332031 163.777344 212.359375 162.488281 C 210.910156 159.65625 208.851562 157.828125 205.441406 157.675781 C 203.878906 157.605469 201.769531 158.25 200.851562 157.03125 C 198.882812 154.425781 197.300781 154.621094 195.324219 156.785156 C 194.96875 157.175781 194.300781 157.53125 193.808594 157.496094 C 189.953125 157.21875 186.09375 158.667969 182.25 157.445312 C 183.851562 155.835938 184.628906 153.527344 186.648438 152.457031 C 186.871094 150.578125 186.3125 148.753906 187.347656 147.1875 C 190.285156 142.75 193.253906 138.339844 196.207031 133.917969 C 196.8125 133.917969 197.320312 133.78125 197.40625 133.058594 L 197.335938 133.113281 C 197.992188 133.152344 198.269531 132.808594 198.265625 132.183594 L 198.207031 132.242188 C 198.84375 132.253906 199.136719 131.929688 199.125 131.308594 L 199.074219 131.351562 C 201.429688 131.078125 202.898438 129.304688 204.394531 127.847656 C 210.8125 121.601562 217.25 115.375 223.265625 108.722656 C 228.605469 102.8125 234 96.984375 237.722656 89.839844 C 238.195312 88.933594 238.648438 88.242188 238.019531 87.085938 C 237.414062 87.621094 236.972656 87.984375 236.558594 88.378906 C 230.179688 94.492188 225.167969 101.839844 218.820312 107.980469 C 216.398438 110.328125 214.570312 113.320312 211.382812 114.839844 C 211.398438 113.089844 212.257812 111.585938 212.746094 109.96875 C 213.589844 107.175781 212.277344 105.921875 209.460938 106.570312 C 207.792969 106.957031 206.324219 108.007812 204.546875 107.996094 C 210.222656 101.152344 215.121094 93.632812 221.808594 87.667969 C 225.34375 84.511719 229.007812 81.476562 232.828125 78.679688 C 234.644531 77.347656 236.910156 76.378906 239.332031 76.679688 C 243.050781 77.140625 246.789062 77.234375 250.867188 77.21875 C 250.894531 80.582031 254.183594 80.699219 255.847656 82.515625 C 253.597656 85.199219 253.933594 88.699219 252.894531 91.726562 C 250.234375 99.472656 247.984375 107.414062 244.351562 114.773438 C 241.886719 119.765625 239.097656 124.460938 234.550781 128.289062 C 228.238281 133.597656 221.472656 138.144531 214.722656 142.78125 C 212.414062 144.363281 210.640625 146.621094 207.847656 147.625 C 206.207031 148.214844 204.191406 147.261719 202.386719 148.949219 C 204.359375 150.082031 206.101562 149.695312 207.714844 149.609375 C 209.699219 149.507812 211.554688 148.59375 213.648438 148.792969 C 218.53125 149.261719 223.277344 147.199219 228.195312 147.847656 C 229.027344 147.957031 229.394531 147.15625 230.035156 146.875 C 237.722656 148.648438 242.945312 154.160156 248.480469 159.136719 C 256.878906 166.683594 264.257812 175.242188 272.273438 183.167969 C 272.992188 183.878906 273.570312 184.75 274.710938 184.820312 C 276.109375 188.167969 278.59375 190.875 280.21875 194.070312 C 281.945312 197.476562 282.148438 201.011719 280.03125 204.378906 C 277.972656 207.660156 274.945312 208.832031 271.121094 208.347656 C 268.089844 207.964844 265.191406 207.316406 262.675781 205.476562 C 255.960938 197.976562 247.851562 194.03125 237.5 194.183594 C 230.101562 194.296875 222.738281 195.398438 215.332031 194.820312 C 215.335938 193.253906 214.191406 193.496094 213.191406 193.425781 C 210.742188 193.257812 208.292969 193.382812 205.832031 192.964844 C 196.878906 191.441406 191.816406 184.945312 186.789062 178.375 C 185.832031 177.125 185.371094 175.691406 184.949219 174.113281 C 184.199219 171.332031 183.375 168.546875 182.929688 165.453125 C 180.476562 166.667969 180.089844 168.933594 180.292969 170.410156 C 181.1875 176.929688 182.726562 183.320312 187.542969 188.113281 C 187.542969 189.398438 186.058594 189.714844 186.207031 190.875 C 187.441406 193.148438 188.03125 195.519531 187.863281 198.15625 C 187.707031 200.601562 187.910156 203.070312 187.953125 205.53125 C 187.902344 206.289062 187.847656 207.046875 187.796875 207.804688 C 185.886719 213.046875 182.875 217.539062 178.679688 221.230469 C 172.152344 225.558594 165.285156 229.492188 160.96875 236.398438 Z M 157.613281 215.699219 C 158.691406 215.039062 158.804688 214.070312 159.003906 213.039062 C 160.65625 204.605469 161.234375 195.964844 164.167969 187.78125 C 166.296875 181.832031 168.441406 175.902344 171.621094 170.410156 C 173.816406 166.625 175.996094 162.828125 178.191406 159.019531 C 174.839844 157.269531 173.75 159.539062 172.714844 161.351562 C 170.824219 164.660156 169.023438 167.902344 164.410156 167.480469 C 164.253906 167.464844 164.054688 167.894531 163.867188 168.128906 C 164.070312 169.328125 165.941406 168.296875 165.964844 169.753906 C 165.289062 171.726562 164.828125 173.875 163.855469 175.753906 C 160.085938 183.019531 157.019531 190.457031 156.441406 198.761719 C 156.34375 200.195312 156.34375 202.003906 155.765625 203.0625 C 153.539062 207.109375 156.320312 210.859375 155.992188 214.738281 C 155.960938 215.070312 156.640625 215.675781 157.613281 215.699219 Z M 98.675781 170.492188 C 88.042969 167.007812 79.164062 170.300781 71.363281 177.609375 C 68.679688 180.121094 66.121094 182.699219 61.917969 181.972656 C 59.183594 181.5 57.105469 179.796875 57.238281 177.179688 C 57.515625 171.691406 58.335938 166.34375 61.367188 161.480469 C 63.953125 157.332031 66.15625 152.949219 69.421875 149.25 C 74.699219 143.28125 81.382812 139.46875 88.738281 136.671875 C 92.007812 135.425781 95.414062 134.882812 98.816406 134.160156 C 103.300781 133.203125 107.585938 131.289062 111.933594 129.714844 C 113.292969 129.226562 114.546875 128.429688 116.070312 128.515625 C 116.488281 131.292969 118.535156 130.464844 120.101562 130.167969 C 127.824219 128.699219 135.550781 128.996094 143.292969 129.898438 C 145.117188 134.628906 147.027344 139.332031 149.601562 143.699219 C 150.648438 145.480469 149.9375 148.046875 151.773438 149.199219 C 153.777344 150.460938 154.574219 152.410156 155.691406 154.21875 C 156.777344 155.976562 158.042969 157.539062 159.992188 158.410156 C 151.234375 162.105469 142.109375 164.445312 132.824219 166.453125 C 123.410156 168.484375 113.988281 169.222656 104.421875 168.929688 C 102.359375 168.867188 100.449219 169.445312 98.675781 170.492188 Z M 135.664062 145.136719 C 130.894531 144.847656 126.21875 145.589844 121.519531 146.285156 C 113.695312 147.441406 106.484375 150.003906 100.214844 155.089844 C 106.796875 154.851562 112.582031 151.414062 118.996094 150.457031 C 125.734375 149.449219 132.460938 148.753906 139.269531 148.796875 C 143.691406 151.425781 147.261719 155.417969 152.492188 157.714844 C 151.75 153.113281 147.230469 151.523438 147.121094 147.460938 C 143.175781 146.578125 139.867188 144.808594 137.28125 142.179688 C 135.46875 142.753906 135.589844 143.953125 135.664062 145.136719 Z M 289.265625 231.921875 C 293.546875 225.296875 296.964844 218.160156 301.378906 211.605469 C 302.496094 209.945312 303.828125 208.433594 304.605469 206.5 C 309.855469 193.433594 314.695312 180.242188 317.289062 166.335938 C 318.117188 161.878906 317.765625 157.515625 316.3125 153.230469 C 314.796875 159.902344 312.015625 166.023438 308.890625 172.117188 C 302.628906 184.320312 296.269531 196.425781 288.417969 207.71875 C 286.984375 209.785156 284.96875 211.855469 284.894531 214.582031 C 284.6875 222.109375 284.179688 229.640625 284.8125 237.175781 C 286.570312 235.65625 288.023438 233.847656 289.265625 231.921875 Z M 309.085938 149.828125 C 303.160156 150.707031 298.289062 153.199219 294.523438 158.054688 C 290.429688 163.339844 285.53125 167.992188 281.917969 173.675781 C 283.34375 174.488281 283.324219 175.96875 283.847656 177.300781 C 285.609375 181.773438 283.765625 186.726562 285.851562 191.039062 C 286.484375 191.074219 286.621094 190.582031 286.871094 190.253906 C 290.789062 185.109375 293.664062 179.25 297.824219 174.261719 C 298.6875 173.226562 299.285156 172.105469 301.15625 172.949219 C 300.605469 174.015625 300.160156 175.042969 299.578125 175.984375 C 295.277344 182.992188 290.953125 189.984375 286.628906 196.980469 C 285.246094 199.210938 284.359375 201.515625 285.296875 204.480469 C 287.523438 202.652344 289.359375 200.507812 290.351562 198.464844 C 294.890625 189.121094 300.945312 180.660156 305.589844 171.40625 C 308.890625 164.828125 312.394531 158.308594 313.859375 150.980469 C 312.527344 149.527344 310.886719 149.5625 309.085938 149.828125 Z M 272.785156 117.910156 C 270.078125 111.726562 268.71875 105.113281 266.394531 98.808594 C 264.25 92.984375 261.898438 87.328125 256.789062 83.359375 C 256.761719 83.648438 256.65625 83.953125 256.71875 84.21875 C 259.140625 94 258.867188 104.230469 261.785156 113.960938 C 262.511719 116.375 263.121094 118.394531 265.007812 120.210938 C 267.257812 122.367188 269.949219 123.070312 272.761719 123.742188 C 273.8125 121.804688 273.585938 119.734375 272.785156 117.910156 Z M 159.503906 149.496094 C 160.332031 149.941406 161.164062 150.382812 162.070312 150.871094 C 162.960938 150.117188 163.785156 149.417969 164.609375 148.714844 C 164.246094 146.9375 164.480469 145.019531 163.351562 143.421875 C 159.710938 141.324219 157.332031 137.640625 153.570312 135.695312 C 154.613281 140.699219 157.503906 144.90625 159.503906 149.496094 Z M 168.882812 129.445312 C 169.621094 133.839844 170.046875 138.269531 170.183594 142.726562 C 171.609375 143.828125 170.183594 146.722656 172.894531 147.015625 C 172.914062 145.566406 172.933594 144.113281 172.957031 142.664062 C 171.765625 140.992188 171.585938 139.027344 171.160156 137.089844 C 170.339844 133.367188 171.269531 129.414062 169.554688 125.839844 C 168.378906 126.867188 168.664062 128.117188 168.882812 129.445312 Z M 208.464844 118.363281 C 209.390625 118.125 210.023438 117.6875 209.699219 116.582031 C 208.765625 116.816406 208.683594 117.636719 208.464844 118.363281 Z M 210.527344 115.726562 C 211.25 115.835938 211.53125 115.527344 211.398438 114.820312 C 210.710938 114.742188 210.53125 115.148438 210.527344 115.726562 Z M 209.671875 116.621094 C 210.390625 116.722656 210.683594 116.417969 210.546875 115.707031 C 209.949219 115.71875 209.671875 116.039062 209.671875 116.621094 Z M 209.671875 116.621094"/></g><path fill="#57774E" d="M 187.796875 207.804688 C 187.851562 207.046875 187.902344 206.289062 187.953125 205.53125 C 191.640625 205.992188 195.296875 206.808594 199.046875 206.390625 C 199.558594 206.871094 200.097656 207.332031 200.078125 208.125 C 200.648438 216.992188 203.8125 225.253906 206.351562 233.621094 C 208.855469 241.875 211.472656 250.128906 213.777344 258.410156 C 217.398438 271.425781 221.027344 284.421875 225.558594 297.144531 C 227.199219 301.75 229.566406 306.097656 231.953125 311.328125 C 232.152344 309.421875 232.257812 308.429688 232.359375 307.4375 C 233.839844 309.757812 234.351562 312.628906 236.414062 314.925781 C 237.507812 307.851562 239.601562 301.394531 241.355469 294.84375 C 243.230469 287.851562 247.261719 281.679688 248.726562 274.582031 C 249.347656 271.566406 250.59375 268.800781 251.746094 266.003906 C 254.054688 260.402344 256.398438 254.8125 258.925781 249.308594 C 260.359375 246.191406 261.363281 242.792969 263.976562 240.320312 C 265.851562 242.042969 265.882812 245.6875 269.492188 245.601562 C 267.292969 253.121094 263.589844 260.035156 260.769531 267.304688 C 258.578125 272.957031 256.601562 278.699219 254.238281 284.277344 C 251.496094 290.75 249.695312 297.570312 247.097656 304.023438 C 244.542969 310.363281 243.964844 317.1875 241.128906 323.386719 C 240.335938 325.121094 240.617188 327.261719 241.273438 329.324219 C 242.851562 334.300781 244.9375 339.0625 247.089844 343.785156 C 248.667969 347.242188 249.667969 350.785156 250.242188 354.609375 C 248.617188 356.300781 247.078125 355.816406 245.871094 354.230469 C 241.085938 347.921875 236.171875 341.703125 232.597656 334.558594 C 228.992188 327.355469 225.367188 320.191406 222.605469 312.585938 C 218.738281 301.921875 213.917969 291.601562 210.921875 280.621094 C 209.488281 275.367188 207.929688 270.140625 206.5 264.890625 C 205.203125 260.121094 202.546875 255.648438 201.328125 250.714844 C 199.445312 243.078125 196.691406 235.703125 194.378906 228.210938 C 192.269531 221.378906 189.5 214.757812 187.796875 207.804688 Z M 221.726562 327.4375 C 219.5 325.832031 217.246094 324.300781 214.777344 323.039062 C 208.5 319.820312 202.128906 316.722656 196.125 313.039062 C 186.0625 306.871094 176.589844 299.792969 166.570312 293.523438 C 157.757812 288.011719 149.410156 281.761719 140.816406 275.890625 C 138.972656 274.628906 137.6875 272.519531 135.410156 271.953125 C 134.695312 272.820312 135.0625 273.503906 135.191406 274.199219 C 136.238281 279.871094 139.835938 283.988281 143.316406 288.324219 C 154.316406 302.027344 165.746094 315.046875 182.195312 322.722656 C 189.613281 326.1875 197.15625 328.464844 205.199219 329.542969 C 210.644531 330.273438 216.355469 328.730469 221.578125 331.472656 C 222.4375 331.925781 223.257812 331.402344 223.765625 330.527344 C 223.851562 329 222.777344 328.199219 221.726562 327.4375 Z M 111.363281 192.796875 C 108.566406 196.554688 104.4375 199.316406 100.976562 202.597656 C 99.707031 203.800781 97.847656 204.652344 97.625 207.585938 C 102.761719 205.878906 107.515625 204.496094 112.121094 202.726562 C 118.277344 200.359375 123.878906 196.691406 130.25 194.796875 C 130.421875 193.035156 131.519531 191.667969 132.261719 190.160156 C 133.542969 187.539062 135.957031 185.601562 136.835938 182.71875 C 132.136719 183.480469 127.695312 182.03125 123.179688 181.164062 C 119.382812 185.167969 114.757812 188.234375 111.363281 192.796875 Z M 161.609375 241.003906 C 162.039062 247.773438 161.746094 254.601562 163.5625 261.238281 C 163.90625 262.503906 164 263.90625 166.058594 263.578125 C 167.378906 258.792969 168.378906 253.855469 170.164062 249.21875 C 171.164062 246.628906 171.09375 243.945312 172.09375 241.351562 C 174.632812 234.777344 176.527344 227.953125 178.679688 221.230469 C 172.152344 225.558594 165.285156 229.492188 160.96875 236.398438 C 162.203125 237.785156 161.511719 239.476562 161.609375 241.003906 Z M 208.445312 306.535156 C 200.984375 295.363281 192.421875 285.101562 183.050781 275.480469 C 182.015625 274.414062 181.140625 273.5625 179.8125 274.3125 C 178.316406 275.152344 178.210938 276.605469 178.964844 278.082031 C 179.289062 278.722656 179.675781 279.34375 180.113281 279.914062 C 186.679688 288.46875 193.167969 297.085938 199.886719 305.515625 C 202.382812 308.648438 205.378906 311.4375 210.136719 311.390625 C 210.261719 309.378906 209.402344 307.96875 208.445312 306.535156 Z M 223.332031 222.226562 C 229.359375 227.402344 235.058594 233.015625 242.492188 237.121094 C 242.023438 231.707031 234.5625 221.21875 222.898438 208.9375 C 222.417969 208.800781 221.988281 208.609375 221.851562 208.0625 L 221.984375 208.09375 C 219.207031 208.363281 216.480469 208.554688 213.628906 208.359375 C 210.597656 208.152344 207.921875 206.871094 204.988281 206.625 C 211.105469 211.824219 217.242188 216.996094 223.332031 222.226562 Z M 231.578125 303.785156 C 231.339844 304.894531 231.089844 306.003906 232.269531 306.785156 C 232.527344 305.671875 232.589844 304.605469 231.578125 303.785156 Z M 231.578125 303.785156"/><path fill="#151444" d="M 222.898438 208.9375 C 222.417969 208.800781 221.988281 208.609375 221.851562 208.0625 C 222.394531 208.121094 222.796875 208.351562 222.898438 208.9375 Z M 222.898438 208.9375"/></svg>